<?xml version="1.0" encoding="UTF-8" standalone="no"?>
<!DOCTYPE svg PUBLIC "-//W3C//DTD SVG 1.0//EN" "http://www.w3.org/TR/2001/PR-SVG-20010719/DTD/svg10.dtd">
<svg width="60cm" height="56cm" viewBox="-653 -332 1196 1111" xmlns="http://www.w3.org/2000/svg" xmlns:xlink="http://www.w3.org/1999/xlink">
  <g id="Background">
    <g>
      <rect style="fill: #ffffff; fill-opacity: 1; stroke-opacity: 1; stroke-width: 2; stroke: #000000" x="-462" y="110" width="74.2" height="36"/>
      <text font-size="12.7998" style="fill: #000000; fill-opacity: 1; stroke: none;text-anchor:middle;font-family:monospace;font-style:normal;font-weight:normal" x="-424.9" y="132">Stocks</text>
    </g>
    <g>
      <ellipse style="fill: #ffffff; fill-opacity: 1; stroke: none" cx="-574.25" cy="110" rx="77.75" ry="18"/>
      <ellipse style="fill: none; stroke-opacity: 1; stroke-width: 2; stroke: #000000" cx="-574.25" cy="110" rx="77.75" ry="18"/>
      <text font-size="12.7998" style="fill: #000000; fill-opacity: 1; stroke: none;text-anchor:middle;font-family:monospace;font-style:normal;font-weight:normal" x="-574.25" y="114">IBKR_ContractID</text>
      <line style="fill: none; stroke-opacity: 1; stroke-width: 2; stroke: #000000" x1="-632" y1="118" x2="-516.5" y2="118"/>
    </g>
    <g>
      <ellipse style="fill: #ffffff; fill-opacity: 1; stroke: none" cx="-540.9" cy="62" rx="43.1" ry="18"/>
      <ellipse style="fill: none; stroke-opacity: 1; stroke-width: 2; stroke: #000000" cx="-540.9" cy="62" rx="43.1" ry="18"/>
      <text font-size="12.7998" style="fill: #000000; fill-opacity: 1; stroke: none;text-anchor:middle;font-family:monospace;font-style:normal;font-weight:normal" x="-540.9" y="66">Symbol</text>
      <line style="fill: none; stroke-opacity: 1; stroke-width: 2; stroke: #000000" x1="-564" y1="70" x2="-517.8" y2="70"/>
    </g>
    <g>
      <ellipse style="fill: #ffffff; fill-opacity: 1; stroke: none" cx="-533.2" cy="535" rx="50.8" ry="18"/>
      <ellipse style="fill: none; stroke-opacity: 1; stroke-width: 2; stroke: #000000" cx="-533.2" cy="535" rx="50.8" ry="18"/>
      <text font-size="12.7998" style="fill: #000000; fill-opacity: 1; stroke: none;text-anchor:middle;font-family:monospace;font-style:normal;font-weight:normal" x="-533.2" y="539">Exchange</text>
    </g>
    <g>
      <ellipse style="fill: #ffffff; fill-opacity: 1; stroke: none" cx="-561.4" cy="594" rx="81.6" ry="18"/>
      <ellipse style="fill: none; stroke-opacity: 1; stroke-width: 2; stroke: #000000" cx="-561.4" cy="594" rx="81.6" ry="18"/>
      <text font-size="12.7998" style="fill: #000000; fill-opacity: 1; stroke: none;text-anchor:middle;font-family:monospace;font-style:normal;font-weight:normal" x="-561.4" y="598">Primary Exchange</text>
    </g>
    <g>
      <ellipse style="fill: #ffffff; fill-opacity: 1; stroke: none" cx="-529.2" cy="481" rx="50.8" ry="18"/>
      <ellipse style="fill: none; stroke-opacity: 1; stroke-width: 2; stroke: #000000" cx="-529.2" cy="481" rx="50.8" ry="18"/>
      <text font-size="12.7998" style="fill: #000000; fill-opacity: 1; stroke: none;text-anchor:middle;font-family:monospace;font-style:normal;font-weight:normal" x="-529.2" y="485">Currency</text>
    </g>
    <g>
      <ellipse style="fill: #ffffff; fill-opacity: 1; stroke: none" cx="-533.6" cy="161.25" rx="35.4" ry="18"/>
      <ellipse style="fill: none; stroke-opacity: 1; stroke-width: 2; stroke: #000000" cx="-533.6" cy="161.25" rx="35.4" ry="18"/>
      <text font-size="12.7998" style="fill: #000000; fill-opacity: 1; stroke: none;text-anchor:middle;font-family:monospace;font-style:normal;font-weight:normal" x="-533.6" y="165.25">Name</text>
    </g>
    <g>
      <ellipse style="fill: #ffffff; fill-opacity: 1; stroke: none" cx="-529.05" cy="358.25" rx="46.95" ry="18"/>
      <ellipse style="fill: none; stroke-opacity: 1; stroke-width: 2; stroke: #000000" cx="-529.05" cy="358.25" rx="46.95" ry="18"/>
      <text font-size="12.7998" style="fill: #000000; fill-opacity: 1; stroke: none;text-anchor:middle;font-family:monospace;font-style:normal;font-weight:normal" x="-529.05" y="362.25">Country</text>
    </g>
    <g>
      <ellipse style="fill: #ffffff; fill-opacity: 1; stroke: none" cx="-531.2" cy="415.25" rx="50.8" ry="18"/>
      <ellipse style="fill: none; stroke-opacity: 1; stroke-width: 2; stroke: #000000" cx="-531.2" cy="415.25" rx="50.8" ry="18"/>
      <text font-size="12.7998" style="fill: #000000; fill-opacity: 1; stroke: none;text-anchor:middle;font-family:monospace;font-style:normal;font-weight:normal" x="-531.2" y="419.25">IPO Year</text>
    </g>
    <g>
      <ellipse style="fill: #ffffff; fill-opacity: 1; stroke: none" cx="-523.9" cy="302.25" rx="43.1" ry="18"/>
      <ellipse style="fill: none; stroke-opacity: 1; stroke-width: 2; stroke: #000000" cx="-523.9" cy="302.25" rx="43.1" ry="18"/>
      <text font-size="12.7998" style="fill: #000000; fill-opacity: 1; stroke: none;text-anchor:middle;font-family:monospace;font-style:normal;font-weight:normal" x="-523.9" y="306.25">Sector</text>
    </g>
    <g>
      <ellipse style="fill: #ffffff; fill-opacity: 1; stroke: none" cx="-540.2" cy="211.25" rx="50.8" ry="18"/>
      <ellipse style="fill: none; stroke-opacity: 1; stroke-width: 2; stroke: #000000" cx="-540.2" cy="211.25" rx="50.8" ry="18"/>
      <text font-size="12.7998" style="fill: #000000; fill-opacity: 1; stroke: none;text-anchor:middle;font-family:monospace;font-style:normal;font-weight:normal" x="-540.2" y="215.25">Industry</text>
    </g>
    <g>
      <rect style="fill: #ffffff; fill-opacity: 1; stroke-opacity: 1; stroke-width: 2; stroke: #000000" x="170" y="201.25" width="58.8" height="36"/>
      <text font-size="12.7998" style="fill: #000000; fill-opacity: 1; stroke: none;text-anchor:middle;font-family:monospace;font-style:normal;font-weight:normal" x="199.4" y="223.25">ETFs</text>
    </g>
    <g>
      <ellipse style="fill: #ffffff; fill-opacity: 1; stroke: none" cx="498.1" cy="117.25" rx="43.1" ry="18"/>
      <ellipse style="fill: none; stroke-opacity: 1; stroke-width: 2; stroke: #000000" cx="498.1" cy="117.25" rx="43.1" ry="18"/>
      <text font-size="12.7998" style="fill: #000000; fill-opacity: 1; stroke: none;text-anchor:middle;font-family:monospace;font-style:normal;font-weight:normal" x="498.1" y="121.25">Symbol</text>
      <line style="fill: none; stroke-opacity: 1; stroke-width: 2; stroke: #000000" x1="475" y1="125.25" x2="521.2" y2="125.25"/>
    </g>
    <g>
      <ellipse style="fill: #ffffff; fill-opacity: 1; stroke: none" cx="455.6" cy="163.25" rx="81.6" ry="18"/>
      <ellipse style="fill: none; stroke-opacity: 1; stroke-width: 2; stroke: #000000" cx="455.6" cy="163.25" rx="81.6" ry="18"/>
      <text font-size="12.7998" style="fill: #000000; fill-opacity: 1; stroke: none;text-anchor:middle;font-family:monospace;font-style:normal;font-weight:normal" x="455.6" y="167.25">IBRK Contract ID</text>
      <line style="fill: none; stroke-opacity: 1; stroke-width: 2; stroke: #000000" x1="394" y1="171.25" x2="517.2" y2="171.25"/>
    </g>
    <g>
      <ellipse style="fill: #ffffff; fill-opacity: 1; stroke: none" cx="486.8" cy="279.25" rx="50.8" ry="18"/>
      <ellipse style="fill: none; stroke-opacity: 1; stroke-width: 2; stroke: #000000" cx="486.8" cy="279.25" rx="50.8" ry="18"/>
      <text font-size="12.7998" style="fill: #000000; fill-opacity: 1; stroke: none;text-anchor:middle;font-family:monospace;font-style:normal;font-weight:normal" x="486.8" y="283.25">Exchange</text>
    </g>
    <g>
      <ellipse style="fill: #ffffff; fill-opacity: 1; stroke: none" cx="-539.5" cy="647.25" rx="58.5" ry="18"/>
      <ellipse style="fill: none; stroke-opacity: 1; stroke-width: 2; stroke: #000000" cx="-539.5" cy="647.25" rx="58.5" ry="18"/>
      <text font-size="12.7998" style="fill: #000000; fill-opacity: 1; stroke: none;text-anchor:middle;font-family:monospace;font-style:normal;font-weight:normal" x="-539.5" y="651.25">First Seen</text>
    </g>
    <g>
      <ellipse style="fill: #ffffff; fill-opacity: 1; stroke: none" cx="-535.35" cy="709" rx="54.65" ry="18"/>
      <ellipse style="fill: none; stroke-opacity: 1; stroke-width: 2; stroke: #000000" cx="-535.35" cy="709" rx="54.65" ry="18"/>
      <text font-size="12.7998" style="fill: #000000; fill-opacity: 1; stroke: none;text-anchor:middle;font-family:monospace;font-style:normal;font-weight:normal" x="-535.35" y="713">Last Seen</text>
    </g>
    <g>
      <ellipse style="fill: #ffffff; fill-opacity: 1; stroke: none" cx="456.6" cy="325" rx="81.6" ry="18"/>
      <ellipse style="fill: none; stroke-opacity: 1; stroke-width: 2; stroke: #000000" cx="456.6" cy="325" rx="81.6" ry="18"/>
      <text font-size="12.7998" style="fill: #000000; fill-opacity: 1; stroke: none;text-anchor:middle;font-family:monospace;font-style:normal;font-weight:normal" x="456.6" y="329">Primary Exchange</text>
    </g>
    <g>
      <ellipse style="fill: #ffffff; fill-opacity: 1; stroke: none" cx="502.4" cy="220" rx="35.4" ry="18"/>
      <ellipse style="fill: none; stroke-opacity: 1; stroke-width: 2; stroke: #000000" cx="502.4" cy="220" rx="35.4" ry="18"/>
      <text font-size="12.7998" style="fill: #000000; fill-opacity: 1; stroke: none;text-anchor:middle;font-family:monospace;font-style:normal;font-weight:normal" x="502.4" y="224">Name</text>
    </g>
    <g>
      <ellipse style="fill: #ffffff; fill-opacity: 1; stroke: none" cx="479.5" cy="378" rx="58.5" ry="18"/>
      <ellipse style="fill: none; stroke-opacity: 1; stroke-width: 2; stroke: #000000" cx="479.5" cy="378" rx="58.5" ry="18"/>
      <text font-size="12.7998" style="fill: #000000; fill-opacity: 1; stroke: none;text-anchor:middle;font-family:monospace;font-style:normal;font-weight:normal" x="479.5" y="382">First Seen</text>
    </g>
    <g>
      <ellipse style="fill: #ffffff; fill-opacity: 1; stroke: none" cx="482.65" cy="442" rx="54.65" ry="18"/>
      <ellipse style="fill: none; stroke-opacity: 1; stroke-width: 2; stroke: #000000" cx="482.65" cy="442" rx="54.65" ry="18"/>
      <text font-size="12.7998" style="fill: #000000; fill-opacity: 1; stroke: none;text-anchor:middle;font-family:monospace;font-style:normal;font-weight:normal" x="482.65" y="446">Last Seen</text>
    </g>
    <g>
      <line style="fill: none; stroke-opacity: 1; stroke-width: 2; stroke: #000000" x1="228.8" y1="201.25" x2="445.873" y2="120.639"/>
      <polygon style="fill: #000000; fill-opacity: 1; stroke-opacity: 1; stroke-width: 2; stroke: #000000" fill-rule="evenodd" points="452.904,118.028 445.27,126.197 445.873,120.639 441.789,116.822 "/>
    </g>
    <g>
      <line style="fill: none; stroke-opacity: 1; stroke-width: 2; stroke: #000000" x1="228.8" y1="201.25" x2="364.581" y2="165.715"/>
      <polygon style="fill: #000000; fill-opacity: 1; stroke-opacity: 1; stroke-width: 2; stroke: #000000" fill-rule="evenodd" points="371.837,163.816 363.429,171.185 364.581,165.715 360.897,161.511 "/>
    </g>
    <g>
      <line style="fill: none; stroke-opacity: 1; stroke-width: 2; stroke: #000000" x1="232.802" y1="220.5" x2="457.264" y2="220.021"/>
      <polygon style="fill: #000000; fill-opacity: 1; stroke-opacity: 1; stroke-width: 2; stroke: #000000" fill-rule="evenodd" points="464.764,220.005 454.775,225.026 457.264,220.021 454.753,215.026 "/>
    </g>
    <g>
      <line style="fill: none; stroke-opacity: 1; stroke-width: 2; stroke: #000000" x1="228.8" y1="237.25" x2="426.458" y2="277.316"/>
      <polygon style="fill: #000000; fill-opacity: 1; stroke-opacity: 1; stroke-width: 2; stroke: #000000" fill-rule="evenodd" points="433.809,278.806 423.015,281.719 426.458,277.316 425.001,271.919 "/>
    </g>
    <g>
      <line style="fill: none; stroke-opacity: 1; stroke-width: 2; stroke: #000000" x1="228.8" y1="237.25" x2="366.652" y2="319.99"/>
      <polygon style="fill: #000000; fill-opacity: 1; stroke-opacity: 1; stroke-width: 2; stroke: #000000" fill-rule="evenodd" points="373.083,323.849 361.935,322.99 366.652,319.99 367.082,314.416 "/>
    </g>
    <g>
      <line style="fill: none; stroke-opacity: 1; stroke-width: 2; stroke: #000000" x1="228.8" y1="237.25" x2="413.145" y2="372.248"/>
      <polygon style="fill: #000000; fill-opacity: 1; stroke-opacity: 1; stroke-width: 2; stroke: #000000" fill-rule="evenodd" points="419.196,376.679 408.174,374.805 413.145,372.248 414.082,366.737 "/>
    </g>
    <g>
      <line style="fill: none; stroke-opacity: 1; stroke-width: 2; stroke: #000000" x1="228.8" y1="237.25" x2="421.211" y2="435.022"/>
      <polygon style="fill: #000000; fill-opacity: 1; stroke-opacity: 1; stroke-width: 2; stroke: #000000" fill-rule="evenodd" points="426.441,440.397 415.884,436.716 421.211,435.022 423.051,429.743 "/>
    </g>
    <g>
      <line style="fill: none; stroke-opacity: 1; stroke-width: 2; stroke: #000000" x1="-462" y1="110" x2="-491.979" y2="69.8044"/>
      <polygon style="fill: #000000; fill-opacity: 1; stroke-opacity: 1; stroke-width: 2; stroke: #000000" fill-rule="evenodd" points="-496.463,63.7924 -486.477,68.8191 -491.979,69.8044 -494.493,74.7977 "/>
    </g>
    <g>
      <line style="fill: none; stroke-opacity: 1; stroke-width: 2; stroke: #000000" x1="-462" y1="110" x2="-486.764" y2="110"/>
      <polygon style="fill: #000000; fill-opacity: 1; stroke-opacity: 1; stroke-width: 2; stroke: #000000" fill-rule="evenodd" points="-494.264,110 -484.264,105 -486.764,110 -484.264,115 "/>
    </g>
    <g>
      <line style="fill: none; stroke-opacity: 1; stroke-width: 2; stroke: #000000" x1="-462" y1="128" x2="-491.03" y2="154.664"/>
      <polygon style="fill: #000000; fill-opacity: 1; stroke-opacity: 1; stroke-width: 2; stroke: #000000" fill-rule="evenodd" points="-496.553,159.737 -492.571,149.29 -491.03,154.664 -485.806,156.655 "/>
    </g>
    <g>
      <line style="fill: none; stroke-opacity: 1; stroke-width: 2; stroke: #000000" x1="-462" y1="146" x2="-485.63" y2="202.273"/>
      <polygon style="fill: #000000; fill-opacity: 1; stroke-opacity: 1; stroke-width: 2; stroke: #000000" fill-rule="evenodd" points="-488.534,209.188 -489.273,198.032 -485.63,202.273 -480.052,201.904 "/>
    </g>
    <g>
      <line style="fill: none; stroke-opacity: 1; stroke-width: 2; stroke: #000000" x1="-462" y1="146" x2="-479.637" y2="292.584"/>
      <polygon style="fill: #000000; fill-opacity: 1; stroke-opacity: 1; stroke-width: 2; stroke: #000000" fill-rule="evenodd" points="-480.533,300.03 -484.302,289.504 -479.637,292.584 -474.374,290.699 "/>
    </g>
    <g>
      <line style="fill: none; stroke-opacity: 1; stroke-width: 2; stroke: #000000" x1="-424.9" y1="146" x2="-479.567" y2="348.849"/>
      <polygon style="fill: #000000; fill-opacity: 1; stroke-opacity: 1; stroke-width: 2; stroke: #000000" fill-rule="evenodd" points="-481.518,356.091 -483.744,345.134 -479.567,348.849 -474.088,347.736 "/>
    </g>
    <g>
      <line style="fill: none; stroke-opacity: 1; stroke-width: 2; stroke: #000000" x1="-428.565" y1="146.97" x2="-478.553" y2="405.691"/>
      <polygon style="fill: #000000; fill-opacity: 1; stroke-opacity: 1; stroke-width: 2; stroke: #000000" fill-rule="evenodd" points="-479.976,413.055 -482.988,402.288 -478.553,405.691 -473.17,404.185 "/>
    </g>
    <g>
      <line style="fill: none; stroke-opacity: 1; stroke-width: 2; stroke: #000000" x1="-424.9" y1="146" x2="-476.865" y2="471.386"/>
      <polygon style="fill: #000000; fill-opacity: 1; stroke-opacity: 1; stroke-width: 2; stroke: #000000" fill-rule="evenodd" points="-478.047,478.792 -481.408,468.129 -476.865,471.386 -471.533,469.706 "/>
    </g>
    <g>
      <line style="fill: none; stroke-opacity: 1; stroke-width: 2; stroke: #000000" x1="-424.9" y1="146" x2="-480.976" y2="525.369"/>
      <polygon style="fill: #000000; fill-opacity: 1; stroke-opacity: 1; stroke-width: 2; stroke: #000000" fill-rule="evenodd" points="-482.073,532.788 -485.557,522.164 -480.976,525.369 -475.665,523.627 "/>
    </g>
    <g>
      <line style="fill: none; stroke-opacity: 1; stroke-width: 2; stroke: #000000" x1="-424.9" y1="146" x2="-478.616" y2="584.336"/>
      <polygon style="fill: #000000; fill-opacity: 1; stroke-opacity: 1; stroke-width: 2; stroke: #000000" fill-rule="evenodd" points="-479.528,591.781 -483.275,581.247 -478.616,584.336 -473.349,582.463 "/>
    </g>
    <g>
      <line style="fill: none; stroke-opacity: 1; stroke-width: 2; stroke: #000000" x1="-424.9" y1="146" x2="-479.917" y2="637.574"/>
      <polygon style="fill: #000000; fill-opacity: 1; stroke-opacity: 1; stroke-width: 2; stroke: #000000" fill-rule="evenodd" points="-480.751,645.028 -484.608,634.534 -479.917,637.574 -474.67,635.646 "/>
    </g>
    <g>
      <line style="fill: none; stroke-opacity: 1; stroke-width: 2; stroke: #000000" x1="-424.9" y1="146" x2="-479.74" y2="699.311"/>
      <polygon style="fill: #000000; fill-opacity: 1; stroke-opacity: 1; stroke-width: 2; stroke: #000000" fill-rule="evenodd" points="-480.479,706.775 -484.469,696.33 -479.74,699.311 -474.518,697.317 "/>
    </g>
    <g>
      <polygon style="fill: #ffffff; fill-opacity: 1; stroke-opacity: 1; stroke-width: 2; stroke: #000000" fill-rule="evenodd" points="-339.198,469.43 -307.648,450.5 -276.098,469.43 -307.648,488.36 "/>
      <text font-size="12.7998" style="fill: #000000; fill-opacity: 1; stroke: none;text-anchor:end;font-family:monospace;font-style:normal;font-weight:normal" x="-345.198" y="463.43"/>
      <text font-size="12.7998" style="fill: #000000; fill-opacity: 1; stroke: none;text-anchor:start;font-family:monospace;font-style:normal;font-weight:normal" x="-270.098" y="463.43"/>
      <text font-size="12.7998" style="fill: #000000; fill-opacity: 1; stroke: none;text-anchor:middle;font-family:monospace;font-style:normal;font-weight:normal" x="-307.648" y="473.43">Has</text>
    </g>
    <g>
      <line style="fill: none; stroke-opacity: 1; stroke-width: 2; stroke: #000000" x1="-387.8" y1="146" x2="-325.379" y2="450.427"/>
      <polygon style="fill: #000000; fill-opacity: 1; stroke-opacity: 1; stroke-width: 2; stroke: #000000" fill-rule="evenodd" points="-323.872,457.775 -330.779,448.983 -325.379,450.427 -320.983,446.974 "/>
    </g>
    <g>
      <polygon style="fill: #ffffff; fill-opacity: 1; stroke-opacity: 1; stroke-width: 2; stroke: #000000" fill-rule="evenodd" points="74.802,483.43 106.352,464.5 137.902,483.43 106.352,502.36 "/>
      <text font-size="12.7998" style="fill: #000000; fill-opacity: 1; stroke: none;text-anchor:end;font-family:monospace;font-style:normal;font-weight:normal" x="68.802" y="477.43"/>
      <text font-size="12.7998" style="fill: #000000; fill-opacity: 1; stroke: none;text-anchor:start;font-family:monospace;font-style:normal;font-weight:normal" x="143.902" y="477.43"/>
      <text font-size="12.7998" style="fill: #000000; fill-opacity: 1; stroke: none;text-anchor:middle;font-family:monospace;font-style:normal;font-weight:normal" x="106.352" y="487.43">Has</text>
    </g>
    <g>
      <line style="fill: none; stroke-opacity: 1; stroke-width: 2; stroke: #000000" x1="170" y1="237.25" x2="108.978" y2="455.125"/>
      <polygon style="fill: #000000; fill-opacity: 1; stroke-opacity: 1; stroke-width: 2; stroke: #000000" fill-rule="evenodd" points="106.955,462.347 104.837,451.369 108.978,455.125 114.467,454.066 "/>
    </g>
    <g>
      <rect style="fill: #ffffff; fill-opacity: 1; stroke-opacity: 1; stroke-width: 2; stroke: #000000" x="-161.198" y="547.25" width="74.2" height="36"/>
      <rect style="fill: none; stroke-opacity: 1; stroke-width: 2; stroke: #000000" x="-156.198" y="552.25" width="64.2" height="26"/>
      <text font-size="12.7998" style="fill: #000000; fill-opacity: 1; stroke: none;text-anchor:middle;font-family:monospace;font-style:normal;font-weight:normal" x="-124.098" y="569.25">Option</text>
    </g>
    <g>
      <ellipse style="fill: #ffffff; fill-opacity: 1; stroke: none" cx="-231.098" cy="683.25" rx="43.1" ry="18"/>
      <ellipse style="fill: none; stroke-opacity: 1; stroke-width: 2; stroke: #000000" cx="-231.098" cy="683.25" rx="43.1" ry="18"/>
      <text font-size="12.7998" style="fill: #000000; fill-opacity: 1; stroke: none;text-anchor:middle;font-family:monospace;font-style:normal;font-weight:normal" x="-231.098" y="687.25">Symbol</text>
      <line style="fill: none; stroke-opacity: 1; stroke-width: 2; stroke: #000000" x1="-254.198" y1="691.25" x2="-207.998" y2="691.25"/>
    </g>
    <g>
      <ellipse style="fill: #ffffff; fill-opacity: 1; stroke: none" cx="-79.598" cy="682.25" rx="81.6" ry="18"/>
      <ellipse style="fill: none; stroke-opacity: 1; stroke-width: 2; stroke: #000000" cx="-79.598" cy="682.25" rx="81.6" ry="18"/>
      <text font-size="12.7998" style="fill: #000000; fill-opacity: 1; stroke: none;text-anchor:middle;font-family:monospace;font-style:normal;font-weight:normal" x="-79.598" y="686.25">IBKR Contract ID</text>
      <line style="fill: none; stroke-opacity: 1; stroke-width: 2; stroke: #000000" x1="-141.198" y1="690.25" x2="-17.998" y2="690.25"/>
    </g>
    <g>
      <ellipse style="fill: #ffffff; fill-opacity: 1; stroke: none" cx="101.552" cy="677.25" rx="77.75" ry="18"/>
      <ellipse style="fill: none; stroke-opacity: 1; stroke-width: 2; stroke: #000000" cx="101.552" cy="677.25" rx="77.75" ry="18"/>
      <text font-size="12.7998" style="fill: #000000; fill-opacity: 1; stroke: none;text-anchor:middle;font-family:monospace;font-style:normal;font-weight:normal" x="101.552" y="681.25">Expiration Date</text>
    </g>
    <g>
      <ellipse style="fill: #ffffff; fill-opacity: 1; stroke: none" cx="234.902" cy="676.25" rx="43.1" ry="18"/>
      <ellipse style="fill: none; stroke-opacity: 1; stroke-width: 2; stroke: #000000" cx="234.902" cy="676.25" rx="43.1" ry="18"/>
      <text font-size="12.7998" style="fill: #000000; fill-opacity: 1; stroke: none;text-anchor:middle;font-family:monospace;font-style:normal;font-weight:normal" x="234.902" y="680.25">Strike</text>
    </g>
    <g>
      <ellipse style="fill: #ffffff; fill-opacity: 1; stroke: none" cx="460.552" cy="685.25" rx="77.75" ry="18"/>
      <ellipse style="fill: none; stroke-opacity: 1; stroke-width: 2; stroke: #000000" cx="460.552" cy="685.25" rx="77.75" ry="18"/>
      <text font-size="12.7998" style="fill: #000000; fill-opacity: 1; stroke: none;text-anchor:middle;font-family:monospace;font-style:normal;font-weight:normal" x="460.552" y="689.25">Type (Call/Put)</text>
    </g>
    <g>
      <line style="fill: none; stroke-opacity: 1; stroke-width: 2; stroke: #000000" x1="-276.098" y1="469.43" x2="-169.259" y2="541.79"/>
      <polygon style="fill: #000000; fill-opacity: 1; stroke-opacity: 1; stroke-width: 2; stroke: #000000" fill-rule="evenodd" points="-163.049,545.996 -174.133,544.528 -169.259,541.79 -168.525,536.249 "/>
    </g>
    <g>
      <line style="fill: none; stroke-opacity: 1; stroke-width: 2; stroke: #000000" x1="74.802" y1="483.43" x2="-77.941" y2="543.678"/>
      <polygon style="fill: #000000; fill-opacity: 1; stroke-opacity: 1; stroke-width: 2; stroke: #000000" fill-rule="evenodd" points="-84.9179,546.43 -77.45,538.109 -77.941,543.678 -73.7808,547.412 "/>
    </g>
    <g>
      <line style="fill: none; stroke-opacity: 1; stroke-width: 2; stroke: #000000" x1="-161.198" y1="583.25" x2="-224.782" y2="657.841"/>
      <polygon style="fill: #000000; fill-opacity: 1; stroke-opacity: 1; stroke-width: 2; stroke: #000000" fill-rule="evenodd" points="-229.647,663.548 -226.965,652.694 -224.782,657.841 -219.355,659.182 "/>
    </g>
    <g>
      <line style="fill: none; stroke-opacity: 1; stroke-width: 2; stroke: #000000" x1="-161.198" y1="583.25" x2="-86.5078" y2="657.391"/>
      <polygon style="fill: #000000; fill-opacity: 1; stroke-opacity: 1; stroke-width: 2; stroke: #000000" fill-rule="evenodd" points="-81.185,662.675 -91.8045,659.178 -86.5078,657.391 -84.7596,652.081 "/>
    </g>
    <g>
      <line style="fill: none; stroke-opacity: 1; stroke-width: 2; stroke: #000000" x1="-124.098" y1="583.25" x2="92.3252" y2="656.142"/>
      <polygon style="fill: #000000; fill-opacity: 1; stroke-opacity: 1; stroke-width: 2; stroke: #000000" fill-rule="evenodd" points="99.4329,658.536 88.36,660.083 92.3252,656.142 91.5519,650.606 "/>
    </g>
    <g>
      <line style="fill: none; stroke-opacity: 1; stroke-width: 2; stroke: #000000" x1="-86.998" y1="583.25" x2="182.566" y2="673.169"/>
      <polygon style="fill: #000000; fill-opacity: 1; stroke-opacity: 1; stroke-width: 2; stroke: #000000" fill-rule="evenodd" points="189.681,675.542 178.613,677.121 182.566,673.169 181.777,667.635 "/>
    </g>
    <g>
      <line style="fill: none; stroke-opacity: 1; stroke-width: 2; stroke: #000000" x1="-86.998" y1="565.25" x2="373.369" y2="682.84"/>
      <polygon style="fill: #000000; fill-opacity: 1; stroke-opacity: 1; stroke-width: 2; stroke: #000000" fill-rule="evenodd" points="380.635,684.697 369.709,687.066 373.369,682.84 372.184,677.377 "/>
    </g>
    <g>
      <ellipse style="fill: #ffffff; fill-opacity: 1; stroke: none" cx="-222.398" cy="759.5" rx="204.8" ry="18"/>
      <ellipse style="fill: none; stroke-opacity: 1; stroke-width: 2; stroke: #000000" cx="-222.398" cy="759.5" rx="204.8" ry="18"/>
      <text font-size="12.7998" style="fill: #000000; fill-opacity: 1; stroke: none;text-anchor:middle;font-family:monospace;font-style:normal;font-weight:normal" x="-222.398" y="763.5">Unique ID (${SYMBOL}${EXP_DATE}${TYPE}${STRIKE})</text>
    </g>
    <g>
      <line style="fill: none; stroke-opacity: 1; stroke-width: 2; stroke: #000000" x1="-161.198" y1="565.25" x2="-359.908" y2="740.336"/>
      <polygon style="fill: #000000; fill-opacity: 1; stroke-opacity: 1; stroke-width: 2; stroke: #000000" fill-rule="evenodd" points="-365.536,745.294 -361.338,734.931 -359.908,740.336 -354.727,742.434 "/>
    </g>
    <g>
      <rect style="fill: #ffffff; fill-opacity: 1; stroke-opacity: 1; stroke-width: 2; stroke: #000000" x="-168.198" y="74.5" width="112.7" height="36"/>
      <text font-size="12.7998" style="fill: #000000; fill-opacity: 1; stroke: none;text-anchor:middle;font-family:monospace;font-style:normal;font-weight:normal" x="-111.848" y="96.5">History Bar</text>
    </g>
    <g>
      <ellipse style="fill: #ffffff; fill-opacity: 1; stroke: none" cx="-399.698" cy="-295" rx="135.5" ry="18"/>
      <ellipse style="fill: none; stroke-opacity: 1; stroke-width: 2; stroke: #000000" cx="-399.698" cy="-295" rx="135.5" ry="18"/>
      <text font-size="12.7998" style="fill: #000000; fill-opacity: 1; stroke: none;text-anchor:middle;font-family:monospace;font-style:normal;font-weight:normal" x="-399.698" y="-291">UniqueID (ForeignUID+DateTime)</text>
    </g>
    <g>
      <ellipse style="fill: #ffffff; fill-opacity: 1; stroke: none" cx="-346.798" cy="-221" rx="35.4" ry="18"/>
      <ellipse style="fill: none; stroke-opacity: 1; stroke-width: 2; stroke: #000000" cx="-346.798" cy="-221" rx="35.4" ry="18"/>
      <text font-size="12.7998" style="fill: #000000; fill-opacity: 1; stroke: none;text-anchor:middle;font-family:monospace;font-style:normal;font-weight:normal" x="-346.798" y="-217">Open</text>
    </g>
    <g>
      <ellipse style="fill: #ffffff; fill-opacity: 1; stroke: none" cx="-243.798" cy="-224" rx="35.4" ry="18"/>
      <ellipse style="fill: none; stroke-opacity: 1; stroke-width: 2; stroke: #000000" cx="-243.798" cy="-224" rx="35.4" ry="18"/>
      <text font-size="12.7998" style="fill: #000000; fill-opacity: 1; stroke: none;text-anchor:middle;font-family:monospace;font-style:normal;font-weight:normal" x="-243.798" y="-220">High</text>
    </g>
    <g>
      <ellipse style="fill: #ffffff; fill-opacity: 1; stroke: none" cx="-137.623" cy="-222" rx="31.575" ry="18"/>
      <ellipse style="fill: none; stroke-opacity: 1; stroke-width: 2; stroke: #000000" cx="-137.623" cy="-222" rx="31.575" ry="18"/>
      <text font-size="12.7998" style="fill: #000000; fill-opacity: 1; stroke: none;text-anchor:middle;font-family:monospace;font-style:normal;font-weight:normal" x="-137.623" y="-218">Low</text>
    </g>
    <g>
      <ellipse style="fill: #ffffff; fill-opacity: 1; stroke: none" cx="-33.948" cy="-228" rx="39.25" ry="18"/>
      <ellipse style="fill: none; stroke-opacity: 1; stroke-width: 2; stroke: #000000" cx="-33.948" cy="-228" rx="39.25" ry="18"/>
      <text font-size="12.7998" style="fill: #000000; fill-opacity: 1; stroke: none;text-anchor:middle;font-family:monospace;font-style:normal;font-weight:normal" x="-33.948" y="-224">Close</text>
    </g>
    <g>
      <ellipse style="fill: #ffffff; fill-opacity: 1; stroke: none" cx="-358.248" cy="-162" rx="46.95" ry="18"/>
      <ellipse style="fill: none; stroke-opacity: 1; stroke-width: 2; stroke: #000000" cx="-358.248" cy="-162" rx="46.95" ry="18"/>
      <text font-size="12.7998" style="fill: #000000; fill-opacity: 1; stroke: none;text-anchor:middle;font-family:monospace;font-style:normal;font-weight:normal" x="-358.248" y="-158">BidOpen</text>
    </g>
    <g>
      <ellipse style="fill: #ffffff; fill-opacity: 1; stroke: none" cx="-240.248" cy="-162" rx="46.95" ry="18"/>
      <ellipse style="fill: none; stroke-opacity: 1; stroke-width: 2; stroke: #000000" cx="-240.248" cy="-162" rx="46.95" ry="18"/>
      <text font-size="12.7998" style="fill: #000000; fill-opacity: 1; stroke: none;text-anchor:middle;font-family:monospace;font-style:normal;font-weight:normal" x="-240.248" y="-158">BidHigh</text>
    </g>
    <g>
      <ellipse style="fill: #ffffff; fill-opacity: 1; stroke: none" cx="-161.698" cy="-290" rx="58.5" ry="18"/>
      <ellipse style="fill: none; stroke-opacity: 1; stroke-width: 2; stroke: #000000" cx="-161.698" cy="-290" rx="58.5" ry="18"/>
      <text font-size="12.7998" style="fill: #000000; fill-opacity: 1; stroke: none;text-anchor:middle;font-family:monospace;font-style:normal;font-weight:normal" x="-161.698" y="-286">ForeignUID</text>
    </g>
    <g>
      <ellipse style="fill: #ffffff; fill-opacity: 1; stroke: none" cx="-4.398" cy="-289" rx="50.8" ry="18"/>
      <ellipse style="fill: none; stroke-opacity: 1; stroke-width: 2; stroke: #000000" cx="-4.398" cy="-289" rx="50.8" ry="18"/>
      <text font-size="12.7998" style="fill: #000000; fill-opacity: 1; stroke: none;text-anchor:middle;font-family:monospace;font-style:normal;font-weight:normal" x="-4.398" y="-285">DateTime</text>
    </g>
    <g>
      <ellipse style="fill: #ffffff; fill-opacity: 1; stroke: none" cx="-123.073" cy="-165" rx="43.125" ry="18"/>
      <ellipse style="fill: none; stroke-opacity: 1; stroke-width: 2; stroke: #000000" cx="-123.073" cy="-165" rx="43.125" ry="18"/>
      <text font-size="12.7998" style="fill: #000000; fill-opacity: 1; stroke: none;text-anchor:middle;font-family:monospace;font-style:normal;font-weight:normal" x="-123.073" y="-161">BidLow</text>
    </g>
    <g>
      <ellipse style="fill: #ffffff; fill-opacity: 1; stroke: none" cx="9.602" cy="-162" rx="50.8" ry="18"/>
      <ellipse style="fill: none; stroke-opacity: 1; stroke-width: 2; stroke: #000000" cx="9.602" cy="-162" rx="50.8" ry="18"/>
      <text font-size="12.7998" style="fill: #000000; fill-opacity: 1; stroke: none;text-anchor:middle;font-family:monospace;font-style:normal;font-weight:normal" x="9.602" y="-158">BidClose</text>
    </g>
    <g>
      <ellipse style="fill: #ffffff; fill-opacity: 1; stroke: none" cx="-356.248" cy="-98" rx="46.95" ry="18"/>
      <ellipse style="fill: none; stroke-opacity: 1; stroke-width: 2; stroke: #000000" cx="-356.248" cy="-98" rx="46.95" ry="18"/>
      <text font-size="12.7998" style="fill: #000000; fill-opacity: 1; stroke: none;text-anchor:middle;font-family:monospace;font-style:normal;font-weight:normal" x="-356.248" y="-94">AskOpen</text>
    </g>
    <g>
      <ellipse style="fill: #ffffff; fill-opacity: 1; stroke: none" cx="-225.248" cy="-97" rx="46.95" ry="18"/>
      <ellipse style="fill: none; stroke-opacity: 1; stroke-width: 2; stroke: #000000" cx="-225.248" cy="-97" rx="46.95" ry="18"/>
      <text font-size="12.7998" style="fill: #000000; fill-opacity: 1; stroke: none;text-anchor:middle;font-family:monospace;font-style:normal;font-weight:normal" x="-225.248" y="-93">AskHigh</text>
    </g>
    <g>
      <ellipse style="fill: #ffffff; fill-opacity: 1; stroke: none" cx="-94.073" cy="-98" rx="43.125" ry="18"/>
      <ellipse style="fill: none; stroke-opacity: 1; stroke-width: 2; stroke: #000000" cx="-94.073" cy="-98" rx="43.125" ry="18"/>
      <text font-size="12.7998" style="fill: #000000; fill-opacity: 1; stroke: none;text-anchor:middle;font-family:monospace;font-style:normal;font-weight:normal" x="-94.073" y="-94">AskLow</text>
    </g>
    <g>
      <ellipse style="fill: #ffffff; fill-opacity: 1; stroke: none" cx="23.602" cy="-95" rx="50.8" ry="18"/>
      <ellipse style="fill: none; stroke-opacity: 1; stroke-width: 2; stroke: #000000" cx="23.602" cy="-95" rx="50.8" ry="18"/>
      <text font-size="12.7998" style="fill: #000000; fill-opacity: 1; stroke: none;text-anchor:middle;font-family:monospace;font-style:normal;font-weight:normal" x="23.602" y="-91">AskClose</text>
    </g>
    <g>
      <ellipse style="fill: #ffffff; fill-opacity: 1; stroke: none" cx="121.902" cy="-287" rx="43.1" ry="18"/>
      <ellipse style="fill: none; stroke-opacity: 1; stroke-width: 2; stroke: #000000" cx="121.902" cy="-287" rx="43.1" ry="18"/>
      <text font-size="12.7998" style="fill: #000000; fill-opacity: 1; stroke: none;text-anchor:middle;font-family:monospace;font-style:normal;font-weight:normal" x="121.902" y="-283">Volume</text>
    </g>
    <rect style="fill: none; stroke-opacity: 1; stroke-width: 2; stroke: #000000" x="-560.198" y="-331" width="775" height="265" rx="0" ry="0"/>
    <g>
      <line style="fill: none; stroke-opacity: 1; stroke-width: 2; stroke: #000000" x1="-111.848" y1="74.5" x2="-168.829" y2="-57.0658"/>
      <polygon style="fill: #000000; fill-opacity: 1; stroke-opacity: 1; stroke-width: 2; stroke: #000000" fill-rule="evenodd" points="-171.809,-63.9481 -163.247,-56.7589 -168.829,-57.0658 -172.423,-52.7846 "/>
    </g>
    <g>
      <polygon style="fill: #ffffff; fill-opacity: 1; stroke-opacity: 1; stroke-width: 2; stroke: #000000" fill-rule="evenodd" points="-321.198,103.68 -289.648,84.75 -258.098,103.68 -289.648,122.61 "/>
      <text font-size="12.7998" style="fill: #000000; fill-opacity: 1; stroke: none;text-anchor:end;font-family:monospace;font-style:normal;font-weight:normal" x="-327.198" y="97.68"/>
      <text font-size="12.7998" style="fill: #000000; fill-opacity: 1; stroke: none;text-anchor:start;font-family:monospace;font-style:normal;font-weight:normal" x="-252.098" y="97.68"/>
      <text font-size="12.7998" style="fill: #000000; fill-opacity: 1; stroke: none;text-anchor:middle;font-family:monospace;font-style:normal;font-weight:normal" x="-289.648" y="107.68">Has</text>
    </g>
    <g>
      <polygon style="fill: #ffffff; fill-opacity: 1; stroke-opacity: 1; stroke-width: 2; stroke: #000000" fill-rule="evenodd" points="-166.198,340.68 -134.648,321.75 -103.098,340.68 -134.648,359.61 "/>
      <text font-size="12.7998" style="fill: #000000; fill-opacity: 1; stroke: none;text-anchor:end;font-family:monospace;font-style:normal;font-weight:normal" x="-172.198" y="334.68"/>
      <text font-size="12.7998" style="fill: #000000; fill-opacity: 1; stroke: none;text-anchor:start;font-family:monospace;font-style:normal;font-weight:normal" x="-97.098" y="334.68"/>
      <text font-size="12.7998" style="fill: #000000; fill-opacity: 1; stroke: none;text-anchor:middle;font-family:monospace;font-style:normal;font-weight:normal" x="-134.648" y="344.68">Has</text>
    </g>
    <g>
      <polygon style="fill: #ffffff; fill-opacity: 1; stroke-opacity: 1; stroke-width: 2; stroke: #000000" fill-rule="evenodd" points="13.802,146.68 45.352,127.75 76.902,146.68 45.352,165.61 "/>
      <text font-size="12.7998" style="fill: #000000; fill-opacity: 1; stroke: none;text-anchor:end;font-family:monospace;font-style:normal;font-weight:normal" x="7.802" y="140.68"/>
      <text font-size="12.7998" style="fill: #000000; fill-opacity: 1; stroke: none;text-anchor:start;font-family:monospace;font-style:normal;font-weight:normal" x="82.902" y="140.68"/>
      <text font-size="12.7998" style="fill: #000000; fill-opacity: 1; stroke: none;text-anchor:middle;font-family:monospace;font-style:normal;font-weight:normal" x="45.352" y="150.68">Has</text>
    </g>
    <g>
      <line style="fill: none; stroke-opacity: 1; stroke-width: 2; stroke: #000000" x1="-386.809" y1="119.067" x2="-330.677" y2="105.903"/>
      <polygon style="fill: #000000; fill-opacity: 1; stroke-opacity: 1; stroke-width: 2; stroke: #000000" fill-rule="evenodd" points="-323.375,104.191 -331.969,111.342 -330.677,105.903 -334.252,101.606 "/>
    </g>
    <g>
      <line style="fill: none; stroke-opacity: 1; stroke-width: 2; stroke: #000000" x1="-258.098" y1="103.68" x2="-177.86" y2="93.7015"/>
      <polygon style="fill: #000000; fill-opacity: 1; stroke-opacity: 1; stroke-width: 2; stroke: #000000" fill-rule="evenodd" points="-170.417,92.776 -179.723,98.9718 -177.86,93.7015 -180.958,89.0483 "/>
    </g>
    <g>
      <line style="fill: none; stroke-opacity: 1; stroke-width: 2; stroke: #000000" x1="-134.648" y1="321.75" x2="-112.893" y2="120.18"/>
      <polygon style="fill: #000000; fill-opacity: 1; stroke-opacity: 1; stroke-width: 2; stroke: #000000" fill-rule="evenodd" points="-112.088,112.723 -108.19,123.202 -112.893,120.18 -118.132,122.129 "/>
    </g>
    <g>
      <line style="fill: none; stroke-opacity: 1; stroke-width: 2; stroke: #000000" x1="-124.098" y1="547.25" x2="-133.133" y2="370.337"/>
      <polygon style="fill: #000000; fill-opacity: 1; stroke-opacity: 1; stroke-width: 2; stroke: #000000" fill-rule="evenodd" points="-133.516,362.846 -128.012,372.578 -133.133,370.337 -137.999,373.088 "/>
    </g>
    <g>
      <line style="fill: none; stroke-opacity: 1; stroke-width: 2; stroke: #000000" x1="170" y1="201.25" x2="85.3015" y2="151.603"/>
      <polygon style="fill: #000000; fill-opacity: 1; stroke-opacity: 1; stroke-width: 2; stroke: #000000" fill-rule="evenodd" points="78.8311,147.811 89.9867,148.554 85.3015,151.603 84.9298,157.181 "/>
    </g>
    <g>
      <line style="fill: none; stroke-opacity: 1; stroke-width: 2; stroke: #000000" x1="13.802" y1="146.68" x2="-47.8279" y2="98.4967"/>
      <polygon style="fill: #000000; fill-opacity: 1; stroke-opacity: 1; stroke-width: 2; stroke: #000000" fill-rule="evenodd" points="-53.7364,93.8772 -42.7787,96.0974 -47.8279,98.4967 -48.9379,103.975 "/>
    </g>
  </g>
</svg>
